<?xml version="1.0" encoding="utf-8"?>
<!-- Generator: Adobe Illustrator 22.0.0, SVG Export Plug-In . SVG Version: 6.00 Build 0)  -->
<svg version="1.1" id="Layer_1" xmlns="http://www.w3.org/2000/svg" xmlns:xlink="http://www.w3.org/1999/xlink" x="0px" y="0px"
	 viewBox="0 0 500 500" style="enable-background:new 0 0 500 500;" xml:space="preserve">
<style type="text/css">
	.st0{fill:#C9C9C9;}
	.st1{fill:#A0A0A0;}
	.st2{fill:#71CCFF;}
	.st3{fill:#231F20;}
	.st4{fill:#F9F9F9;}
	.st5{fill:#7A7979;}
	.st6{fill:#4C4C4C;}
	.st7{fill:#F9B630;}
	.st8{fill:#D88A0E;}
	.st9{fill:#FFEDCC;}
	.st10{fill:#C0E7F9;}
	.st11{fill:#08B26C;}
	.st12{fill:#15A9EA;}
	.st13{fill:none;stroke:#C9C9C9;stroke-width:10;stroke-linecap:round;stroke-linejoin:round;stroke-miterlimit:10;}
	.st14{fill:none;stroke:#231F20;stroke-width:10;stroke-linecap:round;stroke-linejoin:round;stroke-miterlimit:10;}
	.st15{fill:#FFFFFF;}
	.st16{fill:#35EF9F;}
	.st17{fill:#22A6E0;}
	.st18{fill:#FC3A6D;}
	.st19{fill:#FFA9C8;}
	.st20{fill:#038E52;}
	.st21{fill:#E2074B;}
</style>
<g>
	<g>
		<g>
			<path class="st5" d="M418.2,495h-73.9v-50.2c0-15.3-12.4-27.7-27.7-27.7H183.5c-56.1,0-101.7-45.6-101.7-101.7
				c0-56.1,45.6-101.7,101.7-101.7h61.6v73.9h-61.6c-15.3,0-27.7,12.4-27.7,27.7c0,15.3,12.4,27.7,27.7,27.7h133.1
				c56.1,0,101.7,45.6,101.7,101.7V495z"/>
		</g>
	</g>
</g>
<g>
	<g>
		<path class="st6" d="M323.9,397.3c-2.8-18.6-19-33-38.4-33c-13.7,0-25.7,7.1-32.6,17.8c-6.9-10.7-19-17.8-32.6-17.8
			c-13.7,0-25.7,7.1-32.6,17.8c-6.9-10.7-19-17.8-32.6-17.8c-17.8,0-32.8,12.1-37.4,28.4c17.8,15.1,40.8,24.3,65.9,24.3h133.1
			c8.7,0,16.5,4,21.6,10.4c0,0,0-0.1,0-0.1C338.1,415.5,332.6,404.5,323.9,397.3z"/>
	</g>
</g>
<g>
	<g>
		<path class="st6" d="M150.5,219.2l47.6,68.5h47v-73.9h-61.6C171.9,213.7,160.8,215.6,150.5,219.2z"/>
	</g>
</g>
<g>
	<g>
		<path class="st3" d="M418.2,500c-2.8,0-5-2.2-5-5v-50.2c0-53.3-43.4-96.7-96.7-96.7H183.5c-18,0-32.7-14.7-32.7-32.7
			c0-18,14.7-32.7,32.7-32.7h56.6v-63.9h-56.6c-53.3,0-96.7,43.4-96.7,96.7c0,53.3,43.4,96.7,96.7,96.7h133.1
			c18,0,32.7,14.7,32.7,32.7V495c0,2.8-2.2,5-5,5s-5-2.2-5-5v-50.2c0-12.5-10.2-22.7-22.7-22.7H183.5
			c-58.8,0-106.7-47.9-106.7-106.7c0-58.8,47.9-106.7,106.7-106.7h61.6c2.8,0,5,2.2,5,5v73.9c0,2.8-2.2,5-5,5h-61.6
			c-12.5,0-22.7,10.2-22.7,22.7c0,12.5,10.2,22.7,22.7,22.7h133.1c58.8,0,106.7,47.9,106.7,106.7V495C423.2,497.8,421,500,418.2,500
			z"/>
	</g>
</g>
<g>
	<g>
		<path class="st0" d="M120,371.7c-1.5,0-2.9-0.6-3.9-1.9c-12.5-15.4-19.3-34.7-19.3-54.5c0-8.6,1.3-17,3.7-25.2
			c0.8-2.6,3.6-4.1,6.2-3.3c2.6,0.8,4.1,3.6,3.3,6.2c-2.2,7.2-3.3,14.7-3.3,22.3c0,17.5,6.1,34.6,17.1,48.2c1.7,2.1,1.4,5.3-0.7,7
			C122.2,371.4,121.1,371.7,120,371.7z"/>
	</g>
</g>
<g>
	<g>
		<path class="st0" d="M123.2,265.3c-1.2,0-2.4-0.4-3.4-1.3c-2-1.9-2.2-5-0.3-7.1c2.7-2.9,5.6-5.7,8.6-8.2c2.1-1.8,5.3-1.5,7,0.6
			c1.8,2.1,1.5,5.3-0.6,7c-2.7,2.2-5.3,4.7-7.6,7.3C125.9,264.8,124.6,265.3,123.2,265.3z"/>
	</g>
</g>
<g>
	<g>
		<path class="st7" d="M247.6,5c-1.1,0-2.1,0-3.2,0c-1.1,0-2.1,0-3.2,0c-85.6,2.2-133.7,99.8-84.8,170.1L229,279.6
			c7.5,10.8,23.4,10.8,30.9,0l72.6-104.4C381.3,104.8,333.2,7.2,247.6,5z M244.4,159.4c-26.2,0-47.5-21.3-47.5-47.5
			c0-26.2,21.3-47.5,47.5-47.5s47.5,21.3,47.5,47.5C291.9,138.2,270.6,159.4,244.4,159.4z"/>
	</g>
</g>
<g>
	<g>
		<path class="st8" d="M338.8,61.5c-18.7,9-31.6,28.1-31.6,50.2c0,22.6,13.5,42,32.8,50.8C357.2,129.1,355,91.6,338.8,61.5z"/>
	</g>
</g>
<g>
	<g>
		<path class="st8" d="M197.2,116.7c-2.4-1.5-4.9-2.9-7.5-4c-8.6-14-24-23.3-41.5-23.3c-3,0-5.9,0.3-8.7,0.8
			c-6.1,27.8-1.5,58.4,17,85l28.8,41.4c22-7.4,37.9-28.3,37.9-52.8c0-3.3-0.3-6.6-0.9-9.8C208.5,146.7,198.8,132.9,197.2,116.7z"/>
	</g>
</g>
<g>
	<g>
		<path class="st3" d="M244.4,292.7c-7.8,0-15.1-3.8-19.6-10.2L152.3,178c-12.2-17.6-19.3-38-20.3-59c-1-19.8,3.3-39.6,12.4-57.5
			c19-37.4,55.1-60.4,96.7-61.4c2.2-0.1,4.4-0.1,6.6,0c41.6,1.1,77.8,24,96.7,61.4c9.1,17.9,13.3,37.8,12.4,57.5
			c-1,21-8.1,41.4-20.3,59L264,282.4C259.5,288.8,252.2,292.7,244.4,292.7z M244.4,10c-1,0-2,0-3.1,0c-37.9,1-70.8,21.9-88.1,56
			c-17.6,34.7-14.9,74.4,7.2,106.3l72.6,104.4c2.6,3.8,6.8,5.9,11.3,5.9c4.6,0,8.7-2.2,11.3-5.9l72.6-104.4
			c22.1-31.8,24.8-71.6,7.2-106.3c-17.3-34.1-50.2-55-88.1-56l0,0C246.5,10,245.4,10,244.4,10z"/>
	</g>
</g>
<g>
	<g>
		<path class="st3" d="M244.4,164.4c-28.9,0-52.5-23.5-52.5-52.5s23.5-52.5,52.5-52.5S296.9,83,296.9,112S273.4,164.4,244.4,164.4z
			 M244.4,69.5C221,69.5,202,88.6,202,112s19.1,42.5,42.5,42.5s42.5-19.1,42.5-42.5S267.8,69.5,244.4,69.5z"/>
	</g>
</g>
<g>
	<g>
		<path class="st9" d="M172.8,168.7c-1.6,0-3.1-0.7-4.1-2.1c-20-28.8-22.4-64.7-6.5-96.1c6-11.8,14.1-22,24-30.1
			c2.1-1.8,5.3-1.4,7,0.7c1.8,2.1,1.4,5.3-0.7,7c-8.9,7.3-16.1,16.3-21.4,26.9c-14.2,28-12,60.1,5.8,85.8c1.6,2.3,1,5.4-1.3,7
			C174.8,168.4,173.8,168.7,172.8,168.7z M212.3,35.9c-2,0-3.9-1.2-4.7-3.2c-1-2.6,0.3-5.5,2.8-6.5c1.9-0.7,3.8-1.4,5.8-2
			c2.6-0.8,5.4,0.6,6.3,3.3c0.8,2.6-0.6,5.4-3.3,6.3c-1.7,0.5-3.5,1.1-5.1,1.8C213.5,35.8,212.9,35.9,212.3,35.9z"/>
	</g>
</g>
<g>
	<g>
		<path class="st3" d="M302.3,292.7h-57.3c-2.8,0-5-2.2-5-5s2.2-5,5-5h57.3c2.8,0,5,2.2,5,5S305.1,292.7,302.3,292.7z"/>
	</g>
</g>
<g>
	<g>
		<path class="st3" d="M338.1,292.7h-13.6c-2.8,0-5-2.2-5-5s2.2-5,5-5h13.6c2.8,0,5,2.2,5,5S340.8,292.7,338.1,292.7z"/>
	</g>
</g>
<g>
	<g>
		<path class="st2" d="M362.9,86c-14.2,0-25.7,11.5-25.7,25.7s11.5,25.7,25.7,25.7h104c14.2,0,25.7-11.5,25.7-25.7
			S481.1,86,466.9,86h-0.6c0-10.3-8.4-18.7-18.7-18.7c-10.3,0-18.7,8.4-18.7,18.7c0-17.9-14.5-32.5-32.5-32.5S364.1,68.1,364.1,86
			H362.9z"/>
	</g>
</g>
<g>
	<g>
		<path class="st3" d="M466.9,142.4h-104c-16.9,0-30.7-13.8-30.7-30.7c0-15.8,11.9-28.8,27.2-30.5c2.4-18.4,18.1-32.7,37.2-32.7
			c14.9,0,27.8,8.7,33.8,21.4c4.3-4.6,10.5-7.5,17.3-7.5c11.4,0,21,8.1,23.2,18.9c15.1,1.9,26.8,14.9,26.8,30.5
			C497.7,128.7,483.9,142.4,466.9,142.4z M362.9,91c-11.4,0-20.7,9.3-20.7,20.7s9.3,20.7,20.7,20.7h104c11.4,0,20.7-9.3,20.7-20.7
			S478.4,91,466.9,91h-0.6c-2.8,0-5-2.2-5-5c0-7.5-6.1-13.7-13.7-13.7s-13.7,6.1-13.7,13.7c0,2.8-2.2,5-5,5s-5-2.2-5-5
			c0-15.1-12.3-27.5-27.5-27.5S369.1,70.9,369.1,86c0,2.8-2.2,5-5,5H362.9z"/>
	</g>
</g>
<g>
	<g>
		<path class="st10" d="M375.6,111h-12.6c-2.8,0-5-2.2-5-5s2.2-5,5-5h12.6c2,0,3.6-1.6,3.6-3.6V86.4c0-9.1,6.9-16.9,15.8-17.8
			c4.9-0.5,9.8,1.2,13.4,4.5c3.6,3.3,5.7,8,5.7,12.9c0,2.8-2.2,5-5,5s-5-2.2-5-5c0-2.1-0.9-4.1-2.5-5.5c-1.6-1.4-3.6-2.1-5.8-1.9
			c-3.8,0.4-6.7,3.8-6.7,7.8v11.1C389.1,104.9,383,111,375.6,111z"/>
	</g>
</g>
<g>
	<g>
		<path class="st3" d="M362.9,142.4h-36.3c-2.8,0-5-2.2-5-5s2.2-5,5-5h36.3c2.8,0,5,2.2,5,5S365.7,142.4,362.9,142.4z"/>
	</g>
</g>
<g>
	<g>
		<path class="st3" d="M311.9,142.4H310c-2.8,0-5-2.2-5-5s2.2-5,5-5h1.9c2.8,0,5,2.2,5,5S314.7,142.4,311.9,142.4z"/>
	</g>
</g>
<g>
	<g>
		<path class="st2" d="M63.4,138c-14.2,0-25.7,11.5-25.7,25.7s11.5,25.7,25.7,25.7h104c14.2,0,25.7-11.5,25.7-25.7
			S181.6,138,167.4,138h-0.6c0-10.3-8.4-18.7-18.7-18.7c-10.3,0-18.7,8.4-18.7,18.7c0-17.9-14.5-32.5-32.5-32.5S64.6,120.1,64.6,138
			H63.4z"/>
	</g>
</g>
<g>
	<g>
		<path class="st3" d="M167.4,194.5h-104c-16.9,0-30.7-13.8-30.7-30.7c0-15.8,11.9-28.8,27.2-30.5c2.4-18.4,18.1-32.7,37.2-32.7
			c14.9,0,27.8,8.7,33.8,21.4c4.3-4.6,10.5-7.5,17.3-7.5c11.4,0,21,8.1,23.2,18.9c15.1,1.9,26.8,14.9,26.8,30.5
			C198.1,180.7,184.3,194.5,167.4,194.5z M63.4,143c-11.4,0-20.7,9.3-20.7,20.7s9.3,20.7,20.7,20.7h104c11.4,0,20.7-9.3,20.7-20.7
			s-9.3-20.7-20.7-20.7h-0.6c-2.8,0-5-2.2-5-5c0-7.5-6.1-13.7-13.7-13.7s-13.7,6.1-13.7,13.7c0,2.8-2.2,5-5,5s-5-2.2-5-5
			c0-15.1-12.3-27.5-27.5-27.5S69.6,122.9,69.6,138c0,2.8-2.2,5-5,5H63.4z"/>
	</g>
</g>
<g>
	<g>
		<path class="st10" d="M76,163H63.4c-2.8,0-5-2.2-5-5s2.2-5,5-5H76c2,0,3.6-1.6,3.6-3.6v-11.1c0-9.1,6.9-16.9,15.8-17.8
			c4.9-0.5,9.8,1.2,13.4,4.5c3.6,3.3,5.7,8,5.7,12.9c0,2.8-2.2,5-5,5s-5-2.2-5-5c0-2.1-0.9-4.1-2.5-5.5c-1.6-1.4-3.6-2.1-5.8-1.9
			c-3.8,0.4-6.7,3.8-6.7,7.8v11.1C89.6,156.9,83.5,163,76,163z"/>
	</g>
</g>
<g>
	<g>
		<path class="st3" d="M63.4,194.5H27.1c-2.8,0-5-2.2-5-5s2.2-5,5-5h36.3c2.8,0,5,2.2,5,5S66.1,194.5,63.4,194.5z"/>
	</g>
</g>
<g>
	<g>
		<path class="st3" d="M12.4,194.5h-1.9c-2.8,0-5-2.2-5-5s2.2-5,5-5h1.9c2.8,0,5,2.2,5,5S15.1,194.5,12.4,194.5z"/>
	</g>
</g>
<g>
	<g>
		<path class="st11" d="M172.9,408.9c0.6-1.8,0.9-3.8,0.9-5.8c0-10.4-8.4-18.8-18.8-18.8c-10.4,0-18.8,8.4-18.8,18.8
			c0,2,0.3,4,0.9,5.8c-8.4,1.9-14.7,9.4-14.7,18.4c0,10.4,8.4,18.8,18.8,18.8c5.5,0,10.4-2.3,13.8-6c3.4,3.7,8.4,6,13.8,6
			c10.4,0,18.8-8.4,18.8-18.8C187.6,418.3,181.3,410.8,172.9,408.9z"/>
	</g>
</g>
<g>
	<g>
		<path class="st11" d="M238.2,408.9c0.6-1.8,0.9-3.8,0.9-5.8c0-10.4-8.4-18.8-18.8-18.8c-10.4,0-18.8,8.4-18.8,18.8
			c0,2,0.3,4,0.9,5.8c-8.4,1.9-14.7,9.4-14.7,18.4c0,10.4,8.4,18.8,18.8,18.8c5.5,0,10.4-2.3,13.8-6c3.4,3.7,8.4,6,13.8,6
			c10.4,0,18.8-8.4,18.8-18.8C252.9,418.3,246.6,410.8,238.2,408.9z"/>
	</g>
</g>
<g>
	<g>
		<path class="st11" d="M303.4,408.9c0.6-1.8,0.9-3.8,0.9-5.8c0-10.4-8.4-18.8-18.8-18.8c-10.4,0-18.8,8.4-18.8,18.8
			c0,2,0.3,4,0.9,5.8c-8.4,1.9-14.7,9.4-14.7,18.4c0,10.4,8.4,18.8,18.8,18.8c5.5,0,10.4-2.3,13.8-6c3.4,3.7,8.4,6,13.8,6
			c10.4,0,18.8-8.4,18.8-18.8C318.1,418.3,311.8,410.8,303.4,408.9z"/>
	</g>
</g>
<g>
	<g>
		<path class="st3" d="M168.8,451.1c-5,0-9.8-1.6-13.8-4.4c-4,2.8-8.8,4.4-13.8,4.4c-13.1,0-23.8-10.7-23.8-23.8
			c0-9.4,5.6-17.8,13.9-21.7c-0.1-0.8-0.1-1.6-0.1-2.5c0-13.1,10.7-23.8,23.8-23.8s23.8,10.7,23.8,23.8c0,0.8,0,1.7-0.1,2.5
			c8.3,3.8,13.9,12.3,13.9,21.7C192.6,440.4,181.9,451.1,168.8,451.1z M155,435.1c1.4,0,2.7,0.6,3.7,1.6c2.6,2.9,6.3,4.4,10.1,4.4
			c7.6,0,13.8-6.2,13.8-13.8c0-6.4-4.5-12.1-10.8-13.5c-1.4-0.3-2.6-1.2-3.3-2.4c-0.7-1.2-0.9-2.7-0.4-4c0.4-1.4,0.7-2.8,0.7-4.2
			c0-7.6-6.2-13.8-13.8-13.8s-13.8,6.2-13.8,13.8c0,1.4,0.2,2.9,0.7,4.2c0.4,1.3,0.3,2.8-0.4,4c-0.7,1.2-1.9,2.1-3.3,2.4
			c-6.3,1.4-10.8,7.1-10.8,13.5c0,7.6,6.2,13.8,13.8,13.8c3.9,0,7.5-1.6,10.1-4.4C152.3,435.7,153.6,435.1,155,435.1z"/>
	</g>
</g>
<g>
	<g>
		<path class="st3" d="M234.1,451.1c-5,0-9.8-1.6-13.8-4.4c-4,2.8-8.8,4.4-13.8,4.4c-13.1,0-23.8-10.7-23.8-23.8
			c0-9.4,5.6-17.8,13.9-21.7c-0.1-0.8-0.1-1.6-0.1-2.5c0-13.1,10.7-23.8,23.8-23.8s23.8,10.7,23.8,23.8c0,0.8,0,1.7-0.1,2.5
			c8.3,3.8,13.9,12.3,13.9,21.7C257.9,440.4,247.2,451.1,234.1,451.1z M220.3,435.1c1.4,0,2.7,0.6,3.7,1.6c2.6,2.9,6.3,4.4,10.1,4.4
			c7.6,0,13.8-6.2,13.8-13.8c0-6.4-4.5-12.1-10.8-13.5c-1.4-0.3-2.6-1.2-3.3-2.4c-0.7-1.2-0.9-2.7-0.4-4c0.4-1.4,0.7-2.8,0.7-4.2
			c0-7.6-6.2-13.8-13.8-13.8s-13.8,6.2-13.8,13.8c0,1.4,0.2,2.9,0.7,4.2c0.4,1.3,0.3,2.8-0.4,4c-0.7,1.2-1.9,2.1-3.3,2.4
			c-6.3,1.4-10.8,7.1-10.8,13.5c0,7.6,6.2,13.8,13.8,13.8c3.9,0,7.5-1.6,10.1-4.4C217.5,435.7,218.9,435.1,220.3,435.1z"/>
	</g>
</g>
<g>
	<g>
		<path class="st3" d="M299.3,451.1c-5,0-9.8-1.6-13.8-4.4c-4,2.8-8.8,4.4-13.8,4.4c-13.1,0-23.8-10.7-23.8-23.8
			c0-9.4,5.6-17.8,13.9-21.7c-0.1-0.8-0.1-1.6-0.1-2.5c0-13.1,10.7-23.8,23.8-23.8c13.1,0,23.8,10.7,23.8,23.8c0,0.8,0,1.7-0.1,2.5
			c8.3,3.8,13.9,12.3,13.9,21.7C323.1,440.4,312.5,451.1,299.3,451.1z M285.5,435.1c1.4,0,2.7,0.6,3.7,1.6c2.6,2.9,6.3,4.4,10.1,4.4
			c7.6,0,13.8-6.2,13.8-13.8c0-6.4-4.5-12.1-10.8-13.5c-1.4-0.3-2.6-1.2-3.3-2.4c-0.7-1.2-0.9-2.7-0.4-4c0.4-1.4,0.7-2.8,0.7-4.2
			c0-7.6-6.2-13.8-13.8-13.8c-7.6,0-13.8,6.2-13.8,13.8c0,1.4,0.2,2.9,0.7,4.2c0.4,1.3,0.3,2.8-0.4,4c-0.7,1.2-1.9,2.1-3.3,2.4
			c-6.3,1.4-10.8,7.1-10.8,13.5c0,7.6,6.2,13.8,13.8,13.8c3.9,0,7.5-1.6,10.1-4.4C282.8,435.7,284.1,435.1,285.5,435.1z"/>
	</g>
</g>
<g>
	<g>
		<path class="st3" d="M155,500c-2.8,0-5-2.2-5-5v-54.9c0-2.8,2.2-5,5-5s5,2.2,5,5V495C160,497.8,157.8,500,155,500z"/>
	</g>
</g>
<g>
	<g>
		<path class="st3" d="M220.3,500c-2.8,0-5-2.2-5-5v-54.9c0-2.8,2.2-5,5-5s5,2.2,5,5V495C225.3,497.8,223,500,220.3,500z"/>
	</g>
</g>
<g>
	<g>
		<path class="st3" d="M285.5,500c-2.8,0-5-2.2-5-5v-54.9c0-2.8,2.2-5,5-5s5,2.2,5,5V495C290.5,497.8,288.3,500,285.5,500z"/>
	</g>
</g>
</svg>
