<?xml version="1.0" encoding="utf-8"?>
<!-- Generator: Adobe Illustrator 22.0.0, SVG Export Plug-In . SVG Version: 6.00 Build 0)  -->
<svg version="1.1" id="Layer_1" xmlns="http://www.w3.org/2000/svg" xmlns:xlink="http://www.w3.org/1999/xlink" x="0px" y="0px"
	 viewBox="0 0 500 500" style="enable-background:new 0 0 500 500;" xml:space="preserve">
<style type="text/css">
	.st0{fill:#C9C9C9;}
	.st1{fill:#A0A0A0;}
	.st2{fill:#71CCFF;}
	.st3{fill:#231F20;}
	.st4{fill:#F9F9F9;}
	.st5{fill:#7A7979;}
	.st6{fill:#4C4C4C;}
	.st7{fill:#F9B630;}
	.st8{fill:#D88A0E;}
	.st9{fill:#FFEDCC;}
	.st10{fill:#C0E7F9;}
	.st11{fill:#08B26C;}
	.st12{fill:#15A9EA;}
	.st13{fill:none;stroke:#C9C9C9;stroke-width:10;stroke-linecap:round;stroke-linejoin:round;stroke-miterlimit:10;}
	.st14{fill:none;stroke:#231F20;stroke-width:10;stroke-linecap:round;stroke-linejoin:round;stroke-miterlimit:10;}
	.st15{fill:#FFFFFF;}
	.st16{fill:#35EF9F;}
	.st17{fill:#22A6E0;}
	.st18{fill:#FC3A6D;}
	.st19{fill:#FFA9C8;}
	.st20{fill:#038E52;}
	.st21{fill:#E2074B;}
</style>
<g>
	<g>
		<polygon class="st11" points="127.5,451.8 5,495 5,249.3 127.5,206.1 		"/>
	</g>
</g>
<g>
	<g>
		<polygon class="st11" points="127.5,451.8 250,495 250,249.3 127.5,206.1 		"/>
	</g>
</g>
<g>
	<g>
		<polygon class="st11" points="372.5,451.8 250,495 250,249.3 372.5,206.1 		"/>
	</g>
</g>
<g>
	<g>
		<polygon class="st11" points="372.5,451.8 495,495 495,249.3 372.5,206.1 		"/>
	</g>
</g>
<g>
	<g>
		<path class="st20" d="M127.5,270.4v-64.3l-52.7,18.6c4.7,6.5,10,12.7,15.8,18.5C101.6,254.2,114.1,263.3,127.5,270.4z"/>
	</g>
</g>
<g>
	<g>
		<path class="st20" d="M127.5,206.1v64.3c21.4,11.2,45.3,17.1,70.1,17.1c18.2,0,35.9-3.2,52.4-9.3v-28.8L127.5,206.1z"/>
	</g>
</g>
<g>
	<g>
		<path class="st20" d="M250,278.2c9.2-3.4,18-7.7,26.4-12.8l68.2,68.2c6.7,6.7,15.7,10.4,25.2,10.4c0.9,0,1.8,0,2.8-0.1v-83
			L332,220.4l-82,28.9V278.2z"/>
	</g>
</g>
<g>
	<g>
		<path class="st20" d="M394.9,333.6c6.7-6.7,10.4-15.7,10.4-25.2c0-9.5-3.7-18.4-10.4-25.2l-22.4-22.4v83
			C381,343.2,388.8,339.6,394.9,333.6z"/>
	</g>
</g>
<g>
	<g>
		<path class="st3" d="M495,500c-0.6,0-1.1-0.1-1.7-0.3l-122.5-43.2c-2-0.7-3.3-2.6-3.3-4.7V206.1c0-1.6,0.8-3.1,2.1-4.1
			c1.3-0.9,3-1.2,4.6-0.6l122.5,43.2c2,0.7,3.3,2.6,3.3,4.7V495c0,1.6-0.8,3.1-2.1,4.1C497,499.7,496,500,495,500z M377.5,448.2
			L490,487.9V252.9l-112.5-39.7V448.2z"/>
	</g>
</g>
<g>
	<g>
		<path class="st3" d="M5,500c-1,0-2-0.3-2.9-0.9C0.8,498.1,0,496.6,0,495V249.3c0-2.1,1.3-4,3.3-4.7l122.5-43.2
			c1.5-0.5,3.2-0.3,4.6,0.6s2.1,2.5,2.1,4.1v245.7c0,2.1-1.3,4-3.3,4.7L6.7,499.7C6.1,499.9,5.6,500,5,500z M10,252.9v235.1
			l112.5-39.7V213.2L10,252.9z M127.5,451.8L127.5,451.8L127.5,451.8z"/>
	</g>
</g>
<g>
	<g>
		<path class="st16" d="M28.5,275c-2.8,0-5-2.2-5-5v-5.5c0-2.8,2.2-5,5-5s5,2.2,5,5v5.5C33.5,272.8,31.3,275,28.5,275z"/>
	</g>
</g>
<g>
	<g>
		<path class="st16" d="M28.5,470c-2.8,0-5-2.2-5-5V289c0-2.8,2.2-5,5-5s5,2.2,5,5v176C33.5,467.8,31.3,470,28.5,470z"/>
	</g>
</g>
<g>
	<g>
		<path class="st3" d="M250,500c-0.6,0-1.1-0.1-1.7-0.3l-122.5-43.2c-2-0.7-3.3-2.6-3.3-4.7V206.1c0-1.6,0.8-3.1,2.1-4.1
			c1.3-0.9,3-1.2,4.6-0.6l122.5,43.2c2,0.7,3.3,2.6,3.3,4.7v155.3c0,2.8-2.2,5-5,5s-5-2.2-5-5V252.9l-112.5-39.7v235.1L245,487.9
			v-23.3c0-2.8,2.2-5,5-5s5,2.2,5,5V495c0,1.6-0.8,3.1-2.1,4.1C252,499.7,251,500,250,500z"/>
	</g>
</g>
<g>
	<g>
		<path class="st3" d="M250,500c-1,0-2-0.3-2.9-0.9c-1.3-0.9-2.1-2.5-2.1-4.1v-30.3c0-2.8,2.2-5,5-5s5,2.2,5,5v23.3l112.5-39.7
			V213.2L255,252.9v151.8c0,2.8-2.2,5-5,5s-5-2.2-5-5V249.3c0-2.1,1.3-4,3.3-4.7l122.5-43.2c1.5-0.5,3.2-0.3,4.6,0.6
			s2.1,2.5,2.1,4.1v245.7c0,2.1-1.3,4-3.3,4.7l-122.5,43.2C251.1,499.9,250.6,500,250,500z"/>
	</g>
</g>
<g>
	<g>
		<path class="st3" d="M250,451.3c-2.8,0-5-2.2-5-5V442c0-2.8,2.2-5,5-5s5,2.2,5,5v4.3C255,449.1,252.8,451.3,250,451.3z"/>
	</g>
</g>
<g>
	<g>
		<circle class="st0" cx="197.6" cy="136.2" r="131.2"/>
	</g>
</g>
<g>
	<g>
		<circle class="st2" cx="197.6" cy="136.2" r="99.6"/>
	</g>
</g>
<g>
	<g>
		<path class="st3" d="M197.6,272.4c-34.9,0-69.8-13.3-96.3-39.8c-25.7-25.7-39.9-59.9-39.9-96.3s14.2-70.6,39.9-96.3
			C126.9,14.2,161.2,0,197.6,0s70.6,14.2,96.3,39.9l0,0l0,0c25.7,25.7,39.9,59.9,39.9,96.3s-14.2,70.6-39.9,96.3
			C267.3,259.1,232.4,272.4,197.6,272.4z M197.6,10c-33.7,0-65.4,13.1-89.3,37c-23.8,23.8-37,55.5-37,89.3c0,33.7,13.1,65.4,37,89.3
			c49.2,49.2,129.3,49.2,178.5,0c23.8-23.8,37-55.5,37-89.3c0-33.7-13.1-65.4-37-89.3l0,0C263,23.1,231.3,10,197.6,10z"/>
	</g>
</g>
<g>
	<g>
		<path class="st3" d="M197.6,240.8c-26.8,0-53.6-10.2-74-30.6c-19.8-19.8-30.6-46-30.6-74c0-27.9,10.9-54.2,30.6-74
			c19.8-19.8,46-30.6,74-30.6s54.2,10.9,74,30.6l0,0l0,0c19.8,19.8,30.6,46,30.6,74c0,27.9-10.9,54.2-30.6,74
			C251.1,230.6,224.3,240.8,197.6,240.8z M197.6,41.6c-25.3,0-49,9.8-66.9,27.7s-27.7,41.6-27.7,66.9s9.8,49,27.7,66.9
			c18.4,18.4,42.7,27.7,66.9,27.7c24.2,0,48.5-9.2,66.9-27.7c17.9-17.9,27.7-41.6,27.7-66.9s-9.8-49-27.7-66.9l0,0
			C246.6,51.5,222.8,41.6,197.6,41.6z"/>
	</g>
</g>
<g>
	<g>
		<path class="st10" d="M190.1,66.8c-2.5,0-4.7-1.9-5-4.5c-0.3-2.7,1.7-5.2,4.5-5.5c2.6-0.3,5.3-0.4,7.9-0.4c2.8,0,5,2.2,5,5
			s-2.2,5-5,5c-2.3,0-4.7,0.1-6.9,0.3C190.5,66.8,190.3,66.8,190.1,66.8z"/>
	</g>
</g>
<g>
	<g>
		<path class="st10" d="M144.7,194.1c-1.3,0-2.6-0.5-3.5-1.5c-15.1-15.1-23.4-35.1-23.4-56.4c0-21.3,8.3-41.3,23.4-56.4
			c6.2-6.2,13.2-11.2,20.8-15c2.5-1.2,5.5-0.2,6.7,2.2s0.2,5.5-2.2,6.7c-6.7,3.3-12.9,7.8-18.2,13.2c-13.2,13.2-20.4,30.7-20.4,49.3
			c0,18.6,7.3,36.2,20.4,49.3c2,2,2,5.1,0,7.1C147.3,193.6,146,194.1,144.7,194.1z"/>
	</g>
</g>
<g>
	<g>
		<path class="st0" d="M278.7,239.4l80,80c6.1,6.1,15.9,6.1,22,0s6.1-15.9,0-22l-80-80c-3.2,4-6.6,7.9-10.4,11.7
			C286.6,232.8,282.7,236.2,278.7,239.4z"/>
	</g>
</g>
<g>
	<g>
		<path class="st3" d="M369.7,329c-5.3,0-10.5-2-14.5-6l-80-80c-1-1-1.5-2.4-1.5-3.8s0.8-2.7,1.9-3.6c3.9-3.1,7.7-6.5,11.2-10
			c3.5-3.5,6.9-7.3,10-11.2c0.9-1.1,2.2-1.8,3.6-1.9c1.4-0.1,2.8,0.4,3.8,1.5l80,80c3.9,3.9,6,9.1,6,14.5c0,5.5-2.1,10.7-6,14.5
			C380.3,327,375,329,369.7,329z M286.1,239.8l76.1,76.1c4.1,4.1,10.8,4.1,15,0c2-2,3.1-4.7,3.1-7.5s-1.1-5.5-3.1-7.5l-76.1-76.1
			c-2.3,2.7-4.7,5.3-7.2,7.8C291.4,235.1,288.8,237.5,286.1,239.8z"/>
	</g>
</g>
</svg>
